<svg width="103" height="35" viewBox="0 0 103 35" fill="none" xmlns="http://www.w3.org/2000/svg">
<g clip-path="url(#clip0_15237_1303)">
<path d="M94.7978 0H8.20684H7.26426C7.00052 0.0023501 6.74023 0.00705029 6.47305 0.0117505C5.89626 0.0188008 5.31948 0.0705029 4.74843 0.166857C4.17967 0.264386 3.62812 0.448869 3.11211 0.71443C2.59839 0.982341 2.12825 1.33133 1.71888 1.74612C1.30837 2.16091 0.966657 2.63916 0.705212 3.16441C0.443768 3.68848 0.262591 4.25015 0.16627 4.83063C0.0710946 5.40875 0.0194937 5.99392 0.0126136 6.58145C0.00458675 6.85053 0.00458675 7.11962 0 7.38753V27.6136C0.00458675 27.8851 0.00458675 28.1483 0.0126136 28.4209C0.0194937 29.0084 0.0710946 29.5936 0.167416 30.1717C0.261445 30.7522 0.442621 31.3139 0.705212 31.8379C0.96551 32.362 1.30837 32.8391 1.71888 33.2515C2.12596 33.6687 2.59725 34.0165 3.11211 34.282C3.62812 34.5488 4.17853 34.7344 4.74843 34.8343C5.31948 34.9295 5.89512 34.9812 6.47419 34.9894C6.74023 34.9953 7.00167 34.9988 7.26541 34.9988L8.20684 35H94.7978L95.7312 34.9988C95.9937 34.9988 96.2621 34.9953 96.5247 34.9894C97.1014 34.9824 97.6771 34.9307 98.2458 34.8343C98.818 34.7344 99.3707 34.5476 99.889 34.282C100.405 34.0165 100.874 33.6687 101.281 33.2515C101.69 32.8379 102.033 32.3608 102.298 31.8379C102.557 31.3139 102.737 30.7522 102.83 30.1717C102.927 29.5936 102.979 29.0084 102.991 28.4209C102.994 28.1483 102.994 27.8851 102.994 27.6136C103 27.2964 103 26.9791 103 26.6572V8.34285C103 8.02323 103 7.70479 102.994 7.38753C102.994 7.11962 102.994 6.85053 102.991 6.58262C102.979 5.9951 102.927 5.40992 102.83 4.83063C102.737 4.25133 102.557 3.68965 102.298 3.16441C101.766 2.11509 100.925 1.2573 99.8879 0.71678C99.3696 0.452394 98.8169 0.267911 98.2447 0.168032C97.6759 0.071678 97.1003 0.0199758 96.5247 0.0141006C96.2609 0.00940039 95.9926 0.0047002 95.73 0.0023501L94.7978 0Z" fill="#A6A6A6"/>
<path d="M7.26874 34.2361C7.00615 34.2361 6.75044 34.2326 6.49014 34.2267C5.9512 34.2197 5.41341 34.1715 4.88134 34.0834C4.38483 33.9964 3.90437 33.8354 3.45601 33.6039C3.00995 33.3748 2.60402 33.0752 2.25199 32.7144C1.89652 32.3584 1.59952 31.9459 1.37477 31.4924C1.14658 31.0365 0.989487 30.5476 0.905779 30.0424C0.817484 29.5007 0.769324 28.9519 0.762443 28.402C0.757857 28.2175 0.750977 27.603 0.750977 27.603V7.3886C0.750977 7.3886 0.757857 6.78345 0.762443 6.60601C0.769324 6.05727 0.817484 5.50969 0.905779 4.968C0.987194 4.46273 1.14544 3.97156 1.37363 3.51329C1.59723 3.06089 1.89308 2.64728 2.2474 2.29124C2.60058 1.92932 3.00766 1.62851 3.45372 1.39585C3.90207 1.16554 4.38253 1.00456 4.87676 0.919953C5.41226 0.83065 5.9512 0.782473 6.49244 0.775422L7.26989 0.763672H95.7276L96.5142 0.775422C97.0497 0.782473 97.5852 0.829475 98.1139 0.917603C98.6138 1.00456 99.0989 1.16554 99.5518 1.39702C100.446 1.86469 101.172 2.60615 101.631 3.51446C101.854 3.9692 102.009 4.45567 102.092 4.95742C102.18 5.50382 102.23 6.05492 102.241 6.60836C102.243 6.8563 102.243 7.12304 102.243 7.38742C102.25 7.71644 102.25 8.02782 102.25 8.34274V26.657C102.25 26.9743 102.25 27.2845 102.243 27.5971C102.243 27.8814 102.243 28.1423 102.24 28.4114C102.23 28.9543 102.181 29.496 102.093 30.033C102.013 30.5418 101.855 31.0341 101.628 31.4935C101.401 31.9424 101.107 32.3513 100.754 32.7062C100.403 33.0681 99.9956 33.3713 99.5495 33.6016C99.0977 33.8342 98.6127 33.9964 98.1139 34.0834C97.5818 34.1703 97.044 34.2185 96.5051 34.2244C96.2528 34.2314 95.989 34.2349 95.7322 34.2349L94.7988 34.2361L7.26989 34.2349L7.26874 34.2361Z" fill="black"/>
<path d="M21.3203 17.763C21.3398 16.2789 22.1047 14.9076 23.35 14.1298C22.561 12.9853 21.2871 12.2849 19.9133 12.2415C18.4685 12.0887 17.0673 13.1216 16.3299 13.1216C15.58 13.1216 14.4459 12.2567 13.2247 12.2826C11.6182 12.3355 10.1562 13.2414 9.37414 14.6691C7.71029 17.5997 8.95101 21.9062 10.5461 24.274C11.3441 25.4337 12.2764 26.7298 13.4965 26.6828C14.6902 26.6335 15.1362 25.9096 16.5776 25.9096C18.0052 25.9096 18.4238 26.684 19.6679 26.6546C20.9499 26.6335 21.7561 25.489 22.5266 24.3186C23.1 23.4926 23.5403 22.5795 23.8339 21.6125C22.3122 20.958 21.3226 19.4422 21.3203 17.763V17.763ZM18.9696 10.6845C19.6679 9.83144 20.0131 8.73629 19.9282 7.62939C18.8618 7.74337 17.8757 8.26275 17.1682 9.08175C16.4687 9.89136 16.1144 10.9501 16.1832 12.0229C17.2645 12.0347 18.2919 11.5411 18.9696 10.6833V10.6845Z" fill="white"/>
<path d="M36.413 23.7476H32.3388L31.3607 26.684H29.6338L33.4935 15.8184H35.287L39.1456 26.684H37.3911L36.413 23.7464V23.7476ZM32.7608 22.3916H35.9899L34.3983 17.6256H34.3536L32.7597 22.3916H32.7608ZM47.4797 22.7229C47.4797 25.1847 46.1839 26.7675 44.2277 26.7675C43.2163 26.8203 42.2645 26.2822 41.7761 25.3809H41.7394V29.3056H40.1397V18.7619H41.6878V20.0779H41.7176C42.2279 19.1825 43.1807 18.6444 44.1979 18.6773C46.1759 18.6773 47.4797 20.2671 47.4797 22.7218V22.7229ZM45.8353 22.7229C45.8353 21.119 45.0212 20.065 43.7759 20.065C42.5547 20.065 41.7325 21.1413 41.7325 22.7229C41.7325 24.3198 42.5547 25.3891 43.7759 25.3891C45.02 25.3891 45.8353 24.3422 45.8353 22.7229ZM56.0569 22.7229C56.0569 25.1847 54.7611 26.7675 52.8049 26.7675C51.7935 26.8203 50.8418 26.2822 50.3533 25.3809H50.3166V29.3056H48.717V18.7619H50.265V20.0779H50.2936C50.8039 19.1825 51.758 18.6444 52.7751 18.6773C54.7531 18.6773 56.0569 20.2671 56.0569 22.7218V22.7229ZM54.4125 22.7229C54.4125 21.119 53.5984 20.065 52.3531 20.065C51.1319 20.065 50.3097 21.1413 50.3097 22.7229C50.3097 24.3198 51.1319 25.3891 52.3531 25.3891C53.5972 25.3891 54.4125 24.3422 54.4125 22.7229ZM61.7261 23.6559C61.8442 24.7335 62.8739 25.442 64.2809 25.442C65.6294 25.442 66.5995 24.7335 66.5995 23.7617C66.5995 22.9192 66.0147 22.4139 64.6295 22.0673L63.2443 21.7289C61.2812 21.2471 60.3707 20.3129 60.3707 18.7995C60.3707 16.9241 61.9772 15.6362 64.2591 15.6362C66.5181 15.6362 68.0661 16.9241 68.1189 18.7995H66.5044C66.4069 17.7149 65.5251 17.0604 64.2374 17.0604C62.9485 17.0604 62.0667 17.7231 62.0667 18.6867C62.0667 19.4551 62.6286 19.9064 64.0069 20.253L65.1845 20.5468C67.3781 21.0744 68.2897 21.9686 68.2897 23.5584C68.2897 25.5912 66.6959 26.865 64.1628 26.865C61.7926 26.865 60.1918 25.6218 60.0886 23.6571H61.7261V23.6559ZM71.7413 16.8865V18.7619H73.2239V20.0497H71.7401V24.4174C71.7401 25.0954 72.0371 25.4115 72.6884 25.4115C72.8639 25.4079 73.0405 25.3962 73.2148 25.3739V26.6547C72.9212 26.7099 72.6242 26.7346 72.3261 26.7299C70.7482 26.7299 70.1336 26.1271 70.1336 24.5913V20.0485H68.9995V18.7619H70.1336V16.8865H71.7401H71.7413ZM74.0817 22.7229C74.0817 20.2307 75.5265 18.6643 77.7774 18.6643C80.0364 18.6643 81.4744 20.2307 81.4744 22.7229C81.4744 25.2223 80.0444 26.7827 77.7774 26.7827C75.5116 26.7827 74.0817 25.2223 74.0817 22.7229ZM79.8449 22.7229C79.8449 21.0133 79.0743 20.0039 77.7774 20.0039C76.4817 20.0039 75.7111 21.0215 75.7111 22.7229C75.7111 24.4397 76.4817 25.442 77.7774 25.442C79.0732 25.442 79.8449 24.4397 79.8449 22.7229ZM82.7942 18.7619H84.3193V20.1096H84.356C84.5693 19.2425 85.3513 18.6444 86.2308 18.6784C86.4143 18.6784 86.5977 18.6984 86.7789 18.7395V20.26C86.5461 20.1884 86.3031 20.1543 86.06 20.1625C85.5898 20.1425 85.1346 20.3329 84.8135 20.6842C84.4924 21.0344 84.3399 21.5091 84.3927 21.985V26.684H82.7942V18.7619ZM94.1533 24.3574C93.9388 25.7957 92.5605 26.7827 90.7981 26.7827C88.5311 26.7827 87.1241 25.2387 87.1241 22.7606C87.1241 20.2765 88.5391 18.6643 90.7304 18.6643C92.8862 18.6643 94.2427 20.1696 94.2427 22.5725V23.1295H88.7386V23.227C88.687 23.8169 88.8877 24.4021 89.289 24.831C89.6904 25.2599 90.2522 25.4937 90.8348 25.4714C91.6111 25.5454 92.3427 25.0918 92.6351 24.3574H94.1533ZM88.7466 21.9932H92.6419C92.6718 21.4621 92.4814 20.9439 92.119 20.5632C91.7555 20.1813 91.2533 19.971 90.7316 19.9816C90.2041 19.9792 89.6995 20.1895 89.3269 20.5667C88.9542 20.9451 88.7443 21.4574 88.7466 21.9932V21.9932Z" fill="white"/>
<path d="M31.6228 9.84668H32.3096C32.5481 9.87724 32.7889 9.80438 32.9724 9.64693C33.1559 9.48829 33.2671 9.25916 33.2774 9.01358C33.2774 8.53181 32.9219 8.22159 32.3165 8.22159C32.0723 8.18634 31.8234 8.25449 31.6285 8.40843C31.4335 8.56118 31.3074 8.78914 31.2799 9.03943H30.5277C30.5529 8.58586 30.7627 8.16284 31.1067 7.87495C31.4507 7.58472 31.898 7.45429 32.3417 7.51186C33.352 7.51186 34.064 8.08764 34.064 8.91605C34.0698 9.4883 33.6811 9.98534 33.1318 10.1099V10.1722C33.7888 10.2015 34.2991 10.7656 34.2739 11.4342C34.2269 11.9007 33.9964 12.3284 33.6352 12.621C33.2751 12.9124 32.813 13.044 32.3555 12.9864C31.8968 13.0499 31.4324 12.9218 31.0689 12.6304C30.7043 12.339 30.4726 11.9101 30.4268 11.4412H31.1927C31.2386 11.9418 31.6893 12.2638 32.3555 12.2638C33.0206 12.2638 33.4563 11.9018 33.4563 11.3919C33.4563 10.8749 33.0469 10.5552 32.3314 10.5552H31.6228V9.84668ZM35.1442 11.7467C35.1442 11.037 35.6637 10.6281 36.5856 10.5693L37.6348 10.5082V10.1675C37.6348 9.75151 37.3654 9.5165 36.8413 9.5165C36.4148 9.5165 36.1189 9.6763 36.0341 9.95479H35.2933C35.3713 9.27796 35.9985 8.84437 36.878 8.84437C37.8493 8.84437 38.3974 9.33554 38.3974 10.1686V12.8595H37.6601V12.3072H37.6004C37.3493 12.7115 36.9055 12.9476 36.4354 12.9253C36.1063 12.9606 35.7783 12.8513 35.5318 12.6268C35.2864 12.4024 35.1454 12.0828 35.1442 11.7456V11.7467ZM37.6348 11.4095V11.0805L36.6888 11.1416C36.1545 11.1768 35.9125 11.3625 35.9125 11.7091C35.9125 12.064 36.2152 12.2708 36.6315 12.2708C36.878 12.2955 37.1246 12.2191 37.3126 12.0558C37.5018 11.8936 37.6188 11.661 37.6348 11.4095V11.4095ZM40.427 9.57407V12.8607H39.6622V8.91957H42.2147V9.57407H40.427ZM46.8508 10.889C46.8508 12.1404 46.2281 12.9253 45.2488 12.9253C44.7592 12.9594 44.2936 12.7021 44.0563 12.2638H43.9955V14.1709H43.2307V8.91957H43.9668V9.57172H44.0242C44.265 9.11933 44.7351 8.84319 45.242 8.85494C46.2281 8.85494 46.8508 9.63635 46.8508 10.8878V10.889ZM46.0641 10.889C46.0641 10.0558 45.6765 9.55292 45.0275 9.55292C44.3842 9.55292 43.9817 10.0664 43.9817 10.8925C43.9817 11.7127 44.3831 12.2273 45.0252 12.2273C45.6765 12.2273 46.0641 11.7244 46.0641 10.8878V10.889ZM47.869 14.2719V13.6021C47.9516 13.6127 48.0353 13.6174 48.119 13.6162C48.4561 13.6421 48.7588 13.4047 48.8196 13.0663L48.877 12.8748L47.4746 8.91957H48.307L49.2783 12.0499H49.3391L50.308 8.91957H51.1187L49.6739 13.0228C49.3425 13.9817 48.9767 14.2895 48.1866 14.2895C48.1224 14.2895 47.9401 14.2825 47.869 14.2719ZM51.715 11.742H52.4764C52.5509 12.0899 52.8709 12.2708 53.3192 12.2708C53.8283 12.2708 54.1414 12.0429 54.1414 11.688C54.1414 11.3084 53.8605 11.1275 53.3192 11.1275H52.739V10.5223H53.3089C53.7722 10.5223 54.0072 10.3426 54.0072 10.0124C54.0072 9.7233 53.779 9.5024 53.3089 9.5024C52.8812 9.5024 52.5693 9.68688 52.5188 9.99827H51.7815C51.8962 9.25446 52.5762 8.74096 53.3089 8.84437C54.2308 8.84437 54.7572 9.26739 54.7572 9.93364C54.7663 10.3155 54.5118 10.6504 54.146 10.7397V10.8008C54.5829 10.8596 54.9085 11.2403 54.9039 11.688C54.9039 12.4365 54.2767 12.9335 53.3192 12.9335C52.473 12.9335 51.7849 12.5387 51.7139 11.742H51.715ZM56.0059 12.8607V8.91957H56.7639V11.6304H56.8246L58.61 8.91957H59.3691V12.8607H58.61V10.1357H58.5538L56.7639 12.8607H56.0059ZM63.5454 9.57407H62.3253V12.8607H61.5593V9.57407H60.3381V8.91957H63.5454V9.57407ZM67.6654 11.7961C67.451 12.5399 66.7435 13.0193 65.9855 12.9359C65.4695 12.95 64.9718 12.7326 64.6278 12.3413C64.2827 11.9488 64.1244 11.4236 64.1955 10.9031C64.1267 10.3802 64.2838 9.85374 64.6267 9.45774C64.9696 9.0641 65.4638 8.83967 65.9821 8.84437C67.06 8.84437 67.7124 9.59287 67.7124 10.8302V11.1016H64.9741V11.1451C64.9501 11.4377 65.0475 11.7268 65.2448 11.9418C65.4408 12.1568 65.7172 12.2779 66.0062 12.2743C66.38 12.319 66.7446 12.131 66.9281 11.7961H67.6643H67.6654ZM64.9753 10.527H66.9315C66.9522 10.2591 66.8593 9.99592 66.6781 9.80203C66.4958 9.60697 66.2424 9.50005 65.9786 9.50592C65.7115 9.5024 65.4546 9.60815 65.2654 9.79968C65.0762 9.99357 64.9718 10.2544 64.9753 10.527ZM70.9094 8.91957H72.6569C73.4138 8.91957 73.8598 9.31086 73.8598 9.92189C73.8621 10.3214 73.5892 10.6692 73.2039 10.7538V10.8161C73.6741 10.8455 74.0387 11.245 74.033 11.7244C74.033 12.4118 73.525 12.8607 72.6741 12.8607H70.9082V8.91957H70.9094ZM71.6662 9.5165V10.5376H72.4253C72.8874 10.5376 73.1087 10.3567 73.1087 10.0229C73.1087 9.71625 72.9161 9.51767 72.5102 9.51767H71.6674L71.6662 9.5165ZM71.6662 11.1087V12.2638H72.5744C73.0262 12.2638 73.2681 12.0605 73.2681 11.688C73.2681 11.2932 72.9941 11.1087 72.4781 11.1087H71.6674H71.6662Z" fill="white"/>
</g>
<defs>
<clipPath id="clip0_15237_1303">
<rect width="103" height="35" fill="white"/>
</clipPath>
</defs>
</svg>
