<svg width="35" height="35" viewBox="0 0 35 35" fill="none" xmlns="http://www.w3.org/2000/svg">
<path fill-rule="evenodd" clip-rule="evenodd" d="M17.5 0C7.83502 0 0 7.83502 0 17.5C0 27.165 7.83502 35 17.5 35C27.165 35 35 27.165 35 17.5C35 7.83502 27.165 0 17.5 0ZM13.6523 8.22299C14.6479 8.17768 14.966 8.1666 17.5008 8.1666H17.4979C20.0335 8.1666 20.3504 8.17768 21.346 8.22299C22.3396 8.26849 23.0182 8.42579 23.6132 8.6566C24.2277 8.8948 24.7469 9.21369 25.266 9.73286C25.7852 10.2516 26.1041 10.7724 26.3433 11.3862C26.5727 11.9797 26.7302 12.6579 26.7769 13.6515C26.8216 14.6471 26.8333 14.9652 26.8333 17.5C26.8333 20.0348 26.8216 20.3522 26.7769 21.3477C26.7302 22.341 26.5727 23.0194 26.3433 23.613C26.1041 24.2267 25.7852 24.7474 25.266 25.2662C24.7474 25.7854 24.2275 26.1051 23.6138 26.3435C23.02 26.5743 22.341 26.7316 21.3473 26.7771C20.3518 26.8224 20.0346 26.8335 17.4996 26.8335C14.965 26.8335 14.6471 26.8224 13.6515 26.7771C12.6581 26.7316 11.9797 26.5743 11.3859 26.3435C10.7724 26.1051 10.2516 25.7854 9.73306 25.2662C9.21408 24.7474 8.89519 24.2267 8.6566 23.6128C8.42599 23.0194 8.26868 22.3412 8.22299 21.3475C8.17787 20.352 8.1666 20.0348 8.1666 17.5C8.1666 14.9652 8.17826 14.6469 8.22279 13.6513C8.26751 12.6581 8.42501 11.9797 8.65641 11.386C8.89558 10.7724 9.21447 10.2516 9.73364 9.73286C10.2524 9.21388 10.7732 8.89499 11.387 8.6566C11.9805 8.42579 12.6587 8.26849 13.6523 8.22299Z" fill="white"/>
<path fill-rule="evenodd" clip-rule="evenodd" d="M16.6638 9.84852C16.8264 9.84827 17.0013 9.84835 17.19 9.84843L17.5011 9.84852C19.9931 9.84852 20.2885 9.85747 21.2726 9.90219C22.1826 9.9438 22.6765 10.0959 23.0055 10.2236C23.441 10.3928 23.7516 10.595 24.078 10.9217C24.4047 11.2483 24.6069 11.5595 24.7765 11.995C24.9042 12.3236 25.0565 12.8175 25.0979 13.7275C25.1426 14.7114 25.1524 15.007 25.1524 17.4979C25.1524 19.9887 25.1426 20.2843 25.0979 21.2682C25.0563 22.1782 24.9042 22.6721 24.7765 23.0007C24.6073 23.4362 24.4047 23.7464 24.078 24.0729C23.7514 24.3995 23.4412 24.6018 23.0055 24.7709C22.6769 24.8993 22.1826 25.0509 21.2726 25.0925C20.2887 25.1373 19.9931 25.147 17.5011 25.147C15.0089 25.147 14.7135 25.1373 13.7296 25.0925C12.8196 25.0505 12.3257 24.8985 11.9965 24.7707C11.5609 24.6016 11.2498 24.3993 10.9231 24.0727C10.5965 23.746 10.3943 23.4357 10.2247 22.9999C10.0969 22.6713 9.94469 22.1774 9.90328 21.2674C9.85855 20.2835 9.84961 19.9879 9.84961 17.4955C9.84961 15.0031 9.85855 14.7091 9.90328 13.7252C9.94489 12.8152 10.0969 12.3213 10.2247 11.9923C10.3939 11.5567 10.5965 11.2456 10.9231 10.919C11.2498 10.5923 11.5609 10.3901 11.9965 10.2205C12.3255 10.0922 12.8196 9.9405 13.7296 9.89869C14.5906 9.8598 14.9243 9.84814 16.6638 9.84619V9.84852ZM22.483 11.3982C21.8646 11.3982 21.3629 11.8993 21.3629 12.5179C21.3629 13.1362 21.8646 13.6379 22.483 13.6379C23.1013 13.6379 23.603 13.1362 23.603 12.5179C23.603 11.8995 23.1013 11.3979 22.483 11.3979V11.3982ZM12.7078 17.5C12.7078 14.853 14.8539 12.7069 17.5009 12.7069H17.5007C20.1477 12.7069 22.2932 14.853 22.2932 17.5C22.2932 20.147 20.1479 22.2922 17.5009 22.2922C14.8539 22.2922 12.7078 20.147 12.7078 17.5Z" fill="white"/>
<path fill-rule="evenodd" clip-rule="evenodd" d="M17.5008 14.3889C19.2189 14.3889 20.6119 15.7817 20.6119 17.5001C20.6119 19.2182 19.2189 20.6112 17.5008 20.6112C15.7825 20.6112 14.3896 19.2182 14.3896 17.5001C14.3896 15.7817 15.7825 14.3889 17.5008 14.3889V14.3889Z" fill="white"/>
</svg>
