<svg width="258" height="53" viewBox="0 0 258 53" fill="none" xmlns="http://www.w3.org/2000/svg">
<path d="M35.4684 37.7381H36.0941V38.1275H27.6078V37.777H28.1945C28.6377 37.777 29.0157 37.6083 29.3286 37.2708C29.6414 36.9074 29.7718 36.518 29.7196 36.1027L27.9598 16.5165L19.7473 34.7009C19.0173 36.2844 18.574 37.6083 18.4176 38.6726H18.0265L8.01505 17.0616L6.33343 36.1027C6.28129 36.518 6.41165 36.9074 6.7245 37.2708C7.03736 37.6083 7.40237 37.777 7.81951 37.777H8.44523V38.1275H0.858398V37.7381H1.48412C2.21412 37.7381 2.83984 37.5174 3.36127 37.0761C3.90877 36.6348 4.23467 36.0378 4.33895 35.285L7.27201 10.3252H7.66308L18.574 33.8053L29.2503 10.3252H29.6023L32.6136 35.285C32.7439 36.3233 33.2654 37.0502 34.1779 37.4655C34.569 37.6472 34.9991 37.7381 35.4684 37.7381ZM45.9843 15.7766C47.9918 14.7383 50.1949 14.2191 52.5935 14.2191C55.0183 14.2191 57.2344 14.7383 59.2419 15.7766C61.2494 16.789 62.8398 18.2298 64.013 20.0988C65.2123 21.9679 65.8119 24.0836 65.8119 26.4458C65.8119 28.8081 65.2123 30.9238 64.013 32.7929C62.8398 34.6619 61.2494 36.1156 59.2419 37.154C57.2344 38.1664 55.1747 38.6726 53.0628 38.6726C50.951 38.6726 49.0869 38.3741 47.4704 37.777C45.854 37.18 44.4461 36.3493 43.2468 35.285C42.0736 34.2206 41.135 32.9227 40.4311 31.3911C39.7532 29.8595 39.4143 28.0683 39.4143 26.0175C39.4143 23.9408 40.0009 21.9679 41.1741 20.0988C42.3734 18.2298 43.9768 16.789 45.9843 15.7766ZM45.2413 34.4283C47.2227 36.4791 49.6735 37.5045 52.5935 37.5045C55.5137 37.5045 57.9644 36.4791 59.9458 34.4283C61.9273 32.3516 62.918 29.6907 62.918 26.4458C62.918 23.201 61.9273 20.5531 59.9458 18.5023C57.9644 16.4256 55.5137 15.3872 52.5935 15.3872C49.6735 15.3872 47.2227 16.4256 45.2413 18.5023C43.2859 20.5531 42.3082 23.201 42.3082 26.4458C42.3082 29.6907 43.2859 32.3516 45.2413 34.4283ZM77.4431 15.7766C79.4506 14.7383 81.6537 14.2191 84.0523 14.2191C86.4769 14.2191 88.693 14.7383 90.7005 15.7766C92.708 16.789 94.2984 18.2298 95.4716 20.0988C96.6709 21.9679 97.2706 24.0836 97.2706 26.4458C97.2706 28.8081 96.6709 30.9238 95.4716 32.7929C94.2984 34.6619 92.708 36.1156 90.7005 37.154C88.693 38.1664 86.6334 38.6726 84.5216 38.6726C82.4098 38.6726 80.5456 38.3741 78.9292 37.777C77.3128 37.18 75.9049 36.3493 74.7051 35.285C73.5324 34.2206 72.5938 32.9227 71.8899 31.3911C71.2115 29.8595 70.8725 28.0683 70.8725 26.0175C70.8725 23.9408 71.4592 21.9679 72.6329 20.0988C73.8317 18.2298 75.4356 16.789 77.4431 15.7766ZM76.7001 34.4283C78.6815 36.4791 81.1322 37.5045 84.0523 37.5045C86.9723 37.5045 89.423 36.4791 91.4045 34.4283C93.3859 32.3516 94.3766 29.6907 94.3766 26.4458C94.3766 23.201 93.3859 20.5531 91.4045 18.5023C89.423 16.4256 86.9723 15.3872 84.0523 15.3872C81.1322 15.3872 78.6815 16.4256 76.7001 18.5023C74.7447 20.5531 73.767 23.201 73.767 26.4458C73.767 29.6907 74.7447 32.3516 76.7001 34.4283ZM128.616 15.1536C128.043 15.1536 127.547 15.3483 127.13 15.7377C126.713 16.1011 126.491 16.5554 126.465 17.1005V33.6885C126.465 35.1941 126.557 36.6218 126.739 37.9717L126.817 38.6726H126.465L106.129 19.4758V35.7133C106.129 36.2844 106.338 36.7646 106.755 37.154C107.172 37.5434 107.681 37.7381 108.28 37.7381H108.945V38.1275H101.554V37.7381H102.219C102.818 37.7381 103.327 37.5434 103.744 37.154C104.161 36.7646 104.37 36.2844 104.37 35.7133V19.0475C104.37 17.464 104.278 16.0492 104.096 14.8032L104.018 14.1801L104.448 14.2191L124.745 33.2601V17.1005C124.692 16.5554 124.458 16.1011 124.041 15.7377C123.623 15.3483 123.128 15.1536 122.555 15.1536H121.89V14.7642H129.281V15.1536H128.616ZM153.187 12.0774H150.684V35.285C150.684 35.9599 150.919 36.544 151.388 37.0372C151.883 37.5045 152.483 37.7381 153.187 37.7381H153.656L153.695 38.1275H145.131V37.7381H145.639C146.317 37.7381 146.891 37.5045 147.36 37.0372C147.855 36.5699 148.116 35.9988 148.142 35.3239V13.7129C148.116 13.0379 147.855 12.4668 147.36 11.9996C146.891 11.5063 146.317 11.2597 145.639 11.2597H145.131V10.8703H155.69C158.062 10.8703 159.927 11.5323 161.282 12.8562C162.638 14.1542 163.316 15.8545 163.316 17.9572C163.316 20.0339 162.664 21.8381 161.36 23.3697C160.083 24.8753 158.519 25.6281 156.668 25.6281C157.059 25.8098 157.515 26.1733 158.036 26.7184C158.584 27.2376 159.066 27.7827 159.483 28.3538C161.725 31.5468 163.186 33.5197 163.863 34.2725C164.541 34.9994 165.024 35.5056 165.31 35.7912C165.597 36.0507 165.91 36.3103 166.249 36.5699C166.588 36.8295 166.927 37.0372 167.266 37.193C168.022 37.5564 168.83 37.7381 169.69 37.7381V38.1275H167.539C166.418 38.1275 165.376 37.9328 164.411 37.5434C163.446 37.1281 162.716 36.7127 162.221 36.2974C161.752 35.8561 161.334 35.4407 160.969 35.0513C160.63 34.636 159.666 33.2861 158.075 31.0017C156.485 28.7173 155.56 27.4193 155.299 27.1078C155.038 26.7703 154.764 26.4458 154.478 26.1343C153.643 25.2517 152.809 24.8104 151.975 24.8104V24.421C152.183 24.447 152.457 24.46 152.796 24.46C153.135 24.46 153.552 24.447 154.047 24.421C157.28 24.3432 159.314 22.9933 160.148 20.3714C160.305 19.8522 160.383 19.372 160.383 18.9307C160.383 18.4634 160.383 18.1649 160.383 18.0351C160.331 16.2958 159.874 14.894 159.014 13.8297C158.154 12.7654 156.993 12.1943 155.533 12.1164C154.908 12.0904 154.126 12.0774 153.187 12.0774ZM171.938 37.7381C172.642 37.7381 173.255 37.5304 173.777 37.1151C174.298 36.6997 174.559 36.2065 174.559 35.6354V17.2563C174.559 16.6852 174.298 16.192 173.777 15.7766C173.255 15.3613 172.629 15.1536 171.899 15.1536H171.391V14.7642H180.229V15.1536H179.721C179.017 15.1536 178.404 15.3483 177.883 15.7377C177.387 16.1271 177.114 16.6073 177.062 17.1784V35.6743C177.088 36.2454 177.361 36.7387 177.883 37.154C178.404 37.5434 179.017 37.7381 179.721 37.7381H180.229L180.268 38.1275H171.391V37.7381H171.938ZM209.714 15.1536H209.401C208.827 15.1536 208.267 15.3483 207.719 15.7377C207.172 16.1011 206.702 16.6592 206.311 17.4121C200.628 29.5609 197.668 35.9209 197.434 36.4921C196.991 37.5823 196.756 38.3092 196.73 38.6726H196.378L186.718 17.451C185.962 15.9194 184.959 15.1536 183.707 15.1536H183.394V14.7642H191.411V15.1536H191.098C190.603 15.1536 190.225 15.3353 189.964 15.6987C189.73 16.0362 189.612 16.3477 189.612 16.6333C189.612 16.9188 189.651 17.2174 189.73 17.5289L196.73 34.5062L203.926 17.6067C204.056 17.2693 204.121 16.9578 204.121 16.6722C204.121 16.3607 203.991 16.0362 203.73 15.6987C203.469 15.3353 203.078 15.1536 202.557 15.1536H202.283V14.7642H209.714V15.1536ZM213.354 37.7381C213.98 37.7381 214.501 37.5434 214.919 37.154C215.362 36.7387 215.596 36.2454 215.623 35.6743V17.1784C215.623 16.6073 215.401 16.1271 214.958 15.7377C214.514 15.3483 213.98 15.1536 213.354 15.1536H212.807V14.7642H224.226C225.295 14.7642 226.234 14.6863 227.042 14.5306C227.85 14.3748 228.372 14.245 228.606 14.1412V18.5802L228.176 18.5413V17.9572C228.176 17.4121 227.993 16.9448 227.628 16.5554C227.263 16.166 226.794 15.9713 226.221 15.9713H218.086V25.8618H224.774C225.295 25.8618 225.686 25.706 225.947 25.3945C226.234 25.083 226.377 24.6936 226.377 24.2263V23.7201H226.807V29.1716H226.377V28.6654C226.377 27.9385 226.103 27.4453 225.556 27.1857C225.347 27.1078 225.126 27.0559 224.891 27.0299H218.086V36.9204H224.226C225.425 36.9204 226.429 36.7127 227.237 36.2974C228.072 35.882 228.697 35.3888 229.115 34.8177C229.558 34.2466 230.001 33.4938 230.444 32.5592H230.835L228.684 38.1275H212.807V37.7381H213.354ZM242.26 15.9713H240.187V35.6354C240.213 36.4401 240.578 37.0502 241.282 37.4655C241.621 37.6472 241.999 37.7381 242.416 37.7381H242.924L242.963 38.1275H234.946V37.7381H235.494C236.094 37.7381 236.602 37.5434 237.019 37.154C237.462 36.7387 237.684 36.2454 237.684 35.6743V17.1784C237.684 16.6073 237.462 16.1271 237.019 15.7377C236.602 15.3483 236.094 15.1536 235.494 15.1536H234.946V14.7642H244.762C247.213 14.7642 249.142 15.3223 250.55 16.4386C251.984 17.5548 252.701 19.0215 252.701 20.8387C252.701 22.6558 252.128 24.1744 250.98 25.3945C249.833 26.6146 248.373 27.3155 246.6 27.4972C247.435 27.8606 248.438 28.873 249.612 30.5344C249.586 30.5344 250.029 31.1055 250.941 32.2477C251.88 33.3899 252.623 34.2855 253.17 34.9345C253.744 35.5575 254.213 36.0378 254.578 36.3752C255.543 37.2838 256.651 37.7381 257.902 37.7381V38.1275H256.69C254.63 38.1275 253.014 37.7251 251.841 36.9204C250.954 36.3233 250.146 35.5835 249.416 34.7009C249.26 34.4932 248.595 33.5846 247.422 31.9752C246.275 30.3397 245.662 29.4701 245.584 29.3663C244.176 27.627 242.859 26.7574 241.634 26.7574V26.368C244.684 26.368 246.522 26.2122 247.148 25.9007C248.008 25.4594 248.595 24.9921 248.908 24.4989C249.56 23.4605 249.885 22.3183 249.885 21.0723C249.885 19.4888 249.416 18.2687 248.478 17.4121C247.539 16.5554 246.275 16.0881 244.684 16.0103C243.98 15.9843 243.172 15.9713 242.26 15.9713Z" fill="white"/>
</svg>
